<svg width="48" height="48" viewBox="0 0 48 48" fill="none" xmlns="http://www.w3.org/2000/svg">
<rect width="48" height="48" fill="white"/>
<rect width="48" height="48" fill="url(#paint0_linear_4830_5159)"/>
<path d="M19.1143 38.3891C19.1067 38.3894 19.0997 38.3931 19.095 38.399C17.474 40.4745 16.0178 42.2365 14.7155 43.7019C14.0953 44.4151 13.442 44.7899 12.7555 44.8207C12.3973 44.8368 12.0364 44.7927 11.6728 44.6884C11.3093 44.5841 10.9438 44.4361 10.5763 44.2443C9.80612 43.7416 9.04277 43.1234 8.29244 42.395C7.54211 41.6667 6.92532 40.9816 6.43634 40.3457C5.84524 39.5663 5.61478 38.8255 5.75141 38.1341C5.88208 37.4429 6.22887 36.7694 6.78584 36.1139C8.46296 34.1525 10.3793 31.9227 12.5345 29.4135C14.6154 26.9964 16.775 24.4683 19.0189 21.8341C19.165 21.6626 19.1933 21.4204 19.0906 21.2202C17.654 18.4191 16.3087 15.8018 15.0549 13.3733C13.7516 10.8441 12.4728 8.80885 11.5721 6.79047C11.0816 5.69142 11.0684 5.00502 12.4931 4.76009C14.1163 4.53915 15.8117 4.46298 17.5735 4.53187C18.455 4.58 19.1505 4.7516 19.654 5.0415C20.1574 5.33139 20.6998 5.82239 21.2869 6.51423C21.6977 7.00566 22.319 7.92624 23.1512 9.28144C23.8778 10.4736 24.7262 11.9063 25.6885 13.5836C25.8829 13.9224 26.358 13.9634 26.6062 13.6612C28.0756 11.8722 29.4101 10.1813 30.6094 8.58456C31.9476 6.8029 33.1649 5.26242 34.2492 3.9582C34.9913 3.02571 36.0149 2.90846 37.3197 3.59548C37.7901 3.81558 38.2869 4.08933 38.8283 4.42685C39.3638 4.76465 39.8822 5.11967 40.3718 5.50338C40.8615 5.8871 41.2791 6.26309 41.6248 6.63682C41.9645 7.01083 42.1642 7.33081 42.206 7.59758C42.2153 7.80551 42.1843 8.04813 42.1186 8.31973C42.047 8.59159 41.8938 8.91099 41.6472 9.28392C40.5817 11.0095 39.1509 13.1297 37.3549 15.6447C35.6223 18.0709 33.7064 20.633 31.6013 23.3164C31.4614 23.4947 31.4431 23.7395 31.5555 23.9361C32.3435 25.3153 33.132 26.7035 33.9207 28.0964C34.7714 29.5988 35.5781 31.0539 36.3403 32.4506C37.1027 33.8528 37.8193 35.1638 38.4784 36.3952C39.1372 37.6212 39.7 38.7034 40.1666 39.6419C40.5974 40.582 40.7277 41.2231 40.546 41.5766C40.3644 41.9302 39.8075 42.1855 38.8637 42.3485C38.6022 42.3877 38.3642 42.4148 38.1313 42.4253L35.9822 42.5218C35.4926 42.5438 34.9909 42.5608 34.4648 42.568C33.9447 42.575 33.4065 42.5772 32.85 42.5748C31.7032 42.4783 30.8105 42.1785 30.1664 41.6865C29.5223 41.1946 28.954 40.5239 28.4615 39.6742C27.8874 38.4719 27.2502 37.1957 26.5554 35.8343C25.9854 34.7176 25.3934 33.5576 24.7826 32.3541C24.596 31.9864 24.0868 31.9407 23.8368 32.2692C22.1634 34.4675 20.5987 36.5081 19.1336 38.3792C19.1289 38.3851 19.1219 38.3887 19.1143 38.3891Z" fill="url(#paint1_linear_4830_5159)"/>
<path fill-rule="evenodd" clip-rule="evenodd" d="M34.4649 42.5681C34.991 42.5609 35.4927 42.5439 35.9822 42.5219L38.1314 42.4253C38.3642 42.4149 38.6023 42.3877 38.8637 42.3486C39.8076 42.1855 40.3644 41.9303 40.5461 41.5767C40.7277 41.2231 40.5974 40.582 40.1666 39.6419C39.7 38.7034 39.1373 37.6212 38.4784 36.3953C37.9559 35.4191 37.3973 34.3928 36.8083 33.3108C36.6544 33.0279 36.4983 32.7413 36.3403 32.4507C35.5781 31.0539 34.7714 29.5989 33.9207 28.0965C33.1321 26.7036 32.3436 25.3154 31.5555 23.9362C31.4432 23.7396 31.4614 23.4948 31.6013 23.3165C33.7064 20.6331 35.6223 18.071 37.355 15.6447C39.1509 13.1298 40.5817 11.0095 41.6472 9.28399C41.8938 8.91106 42.047 8.59166 42.1186 8.3198C42.1843 8.0482 42.2153 7.80557 42.2061 7.59765C42.1642 7.33088 41.9645 7.0109 41.6248 6.63689C41.2791 6.26316 40.8616 5.88716 40.3719 5.50345C39.8822 5.11974 39.3639 4.76472 38.8284 4.42692C38.2869 4.08939 37.7902 3.81565 37.3197 3.59555C36.0149 2.90853 34.9913 3.02578 34.2493 3.95826C33.1649 5.26249 31.9476 6.80297 30.6094 8.58462C29.4101 10.1814 28.0756 11.8723 26.6062 13.6612C26.358 13.9635 25.8829 13.9225 25.6885 13.5836C24.7262 11.9063 23.8778 10.4737 23.1512 9.28151C22.319 7.92631 21.6977 7.00573 21.287 6.5143C20.6998 5.82246 20.1574 5.33145 19.654 5.04156C19.1505 4.75167 18.455 4.58006 17.5735 4.53194C15.8117 4.46305 14.1163 4.53922 12.4931 4.76016C11.0684 5.00509 11.0816 5.69149 11.5721 6.79053C12.109 7.99374 12.7803 9.20294 13.5111 10.5192C14.0062 11.411 14.5285 12.3519 15.0549 13.3734C16.3087 15.8019 17.654 18.4191 19.0906 21.2203C19.1933 21.4205 19.165 21.6627 19.0189 21.8342C16.7751 24.4684 14.6154 26.9964 12.5345 29.4136C12.2723 29.7189 12.0136 30.02 11.7585 30.3171C9.91659 32.4614 8.25894 34.3912 6.78587 36.1139C6.2289 36.7694 5.8821 37.4429 5.75143 38.1341C5.6148 38.8256 5.84526 39.5663 6.43636 40.3457C6.92534 40.9817 7.54213 41.6667 8.29246 42.3951C9.04279 43.1235 9.80614 43.7416 10.5763 44.2443C10.9438 44.4361 11.3093 44.5842 11.6729 44.6885C12.0364 44.7928 12.3973 44.8369 12.7555 44.8208C13.442 44.7899 14.0953 44.4152 14.7155 43.702C16.0179 42.2366 17.474 40.4746 19.095 38.3991C19.0997 38.3931 19.1068 38.3895 19.1144 38.3891C19.1219 38.3888 19.1289 38.3852 19.1336 38.3792C20.3889 36.7761 21.7173 35.0485 23.1246 33.2039C23.1246 33.2039 23.1246 33.2039 23.1246 33.2038C23.1304 33.1963 23.1362 33.1887 23.1419 33.1811C23.3715 32.8803 23.6031 32.5763 23.8368 32.2692C24.0869 31.9407 24.596 31.9865 24.7826 32.3542C24.9571 32.698 25.1301 33.0382 25.3014 33.3749C25.3057 33.3834 25.31 33.3918 25.3143 33.4003C25.3144 33.4003 25.3144 33.4003 25.3144 33.4004C25.7383 34.2334 26.1524 35.0447 26.5554 35.8344C27.2503 37.1958 27.8875 38.472 28.4615 39.6743C28.9541 40.5239 29.5224 41.1947 30.1664 41.6866C30.8105 42.1785 31.7032 42.4783 32.8501 42.5748C33.4065 42.5773 33.9448 42.575 34.4649 42.5681ZM24.0607 35.044C24.3433 35.5985 24.6211 36.1427 24.8936 36.6767C25.5843 38.0299 26.2135 39.2904 26.778 40.4726C26.7993 40.5172 26.8223 40.5608 26.8471 40.6035C27.4365 41.6203 28.1565 42.492 29.0315 43.1603C30.0475 43.9363 31.3217 44.3097 32.6919 44.425C32.7414 44.4291 32.7911 44.4313 32.8407 44.4315C33.4074 44.434 33.9567 44.4317 34.4885 44.4247L34.4892 44.4246C35.0396 44.4171 35.5615 44.3993 36.065 44.3767L38.2141 44.2802C38.534 44.2658 38.841 44.2294 39.1397 44.1846C39.1535 44.1826 39.1673 44.1803 39.181 44.178C39.7341 44.0825 40.2847 43.9429 40.7696 43.7205C41.2346 43.5072 41.8452 43.1228 42.2054 42.4216C42.5777 41.6969 42.5101 40.9503 42.4149 40.469C42.3114 39.9463 42.1066 39.4028 41.8625 38.8701C41.8544 38.8523 41.8459 38.8346 41.8372 38.8171C41.3598 37.8568 40.7878 36.7571 40.1228 35.5198C39.5971 34.5377 39.0347 33.5044 38.4456 32.422C38.292 32.1399 38.1366 31.8544 37.9796 31.5656L37.9782 31.5631C37.2119 30.1589 36.4005 28.6953 35.5446 27.1836C34.8988 26.043 34.2527 24.905 33.6068 23.7721C35.5188 21.3163 37.2729 18.962 38.8738 16.7203C40.675 14.198 42.1268 12.0486 43.2206 10.279C43.5232 9.81756 43.7827 9.31752 43.9217 8.78991C43.9249 8.77772 43.928 8.76551 43.931 8.75326C44.021 8.38081 44.088 7.95423 44.0683 7.51399C44.0653 7.44569 44.0584 7.37762 44.0479 7.31007C43.9166 6.47279 43.3865 5.80794 43.0075 5.39074C43.0038 5.38659 43 5.38247 42.9962 5.37836C42.5679 4.9153 42.0726 4.47293 41.525 4.04389C40.9731 3.61142 40.4002 3.22006 39.8265 2.85813L39.818 2.85283C39.2408 2.49299 38.6904 2.18726 38.1516 1.93295C37.3147 1.49887 36.3589 1.20811 35.3567 1.3256C34.2862 1.45111 33.4274 2.01053 32.8026 2.7881C31.6989 4.11616 30.4663 5.67653 29.117 7.473C28.2677 8.60379 27.3475 9.78526 26.3559 11.0191C25.768 10.0138 25.2302 9.11354 24.7448 8.31721L24.7416 8.312C23.91 6.95771 23.2267 5.93212 22.7199 5.32579L22.7109 5.31508C22.0571 4.54482 21.3538 3.87505 20.5877 3.43396C19.7356 2.94326 18.7164 2.73476 17.6767 2.678C17.6671 2.67747 17.6575 2.67702 17.6478 2.67664C15.7855 2.60382 13.9808 2.68384 12.2419 2.92054C12.2203 2.92348 12.1987 2.9268 12.1772 2.9305C11.3174 3.0783 10.0052 3.49482 9.54572 4.86974C9.3457 5.46837 9.39894 6.02991 9.48604 6.43449C9.5735 6.84074 9.7254 7.22475 9.86859 7.54562C10.3538 8.63288 10.9323 9.70604 11.5293 10.7864C11.6472 10.9998 11.7658 11.2135 11.8851 11.4284C12.3791 12.3182 12.8844 13.2286 13.3963 14.222L13.397 14.2234C14.5341 16.4256 15.7466 18.7838 17.0348 21.2944C14.9932 23.6898 13.0232 25.9945 11.1198 28.2055L11.1184 28.2071C10.8555 28.5131 10.5962 28.815 10.3404 29.1128C8.49954 31.2559 6.84105 33.1867 5.36705 34.9105L5.36326 34.915C4.64825 35.7565 4.12486 36.7137 3.9209 37.7845C3.64993 39.1703 4.16939 40.438 4.94867 41.4655L4.95614 41.4753C5.5103 42.196 6.19001 42.9477 6.99095 43.7252C7.81536 44.5255 8.67107 45.2213 9.55388 45.7975C9.60444 45.8305 9.65658 45.861 9.71013 45.889C10.1784 46.1334 10.6605 46.3306 11.1559 46.4727C11.7034 46.6297 12.2667 46.7013 12.8383 46.6756C14.2056 46.6142 15.2964 45.8661 16.1173 44.9251C17.4135 43.4662 18.8476 41.7329 20.4287 39.7142C20.4908 39.6542 20.5492 39.5895 20.6032 39.5205C21.7005 38.1192 22.8521 36.6249 24.0607 35.044Z" fill="#14193A"/>
<defs>
<linearGradient id="paint0_linear_4830_5159" x1="23.9931" y1="48.005" x2="23.9931" y2="-0.00285577" gradientUnits="userSpaceOnUse">
<stop stop-color="#F66651"/>
<stop offset="0.995" stop-color="#FAFF0D"/>
</linearGradient>
<linearGradient id="paint1_linear_4830_5159" x1="16.3632" y1="4.01637" x2="18.1853" y2="44.5768" gradientUnits="userSpaceOnUse">
<stop offset="0.11" stop-color="#B7F700"/>
<stop offset="0.965" stop-color="#07564C"/>
<stop offset="1" stop-color="#004F3C"/>
</linearGradient>
</defs>
</svg>
